<svg width="1061" height="1033" viewBox="0 0 1061 1033" fill="none" xmlns="http://www.w3.org/2000/svg">
<path d="M1055.8 501.266C1044.37 382.752 984.848 264.525 933.492 199.221C715.862 -77.5331 279.06 -77.0034 71.0307 270.616C12.3475 368.65 -24.4868 586.632 19.1008 747.851C74.8709 954.202 294.641 1034.56 539.04 1032.77C767.395 1031 946.954 931.713 1014.18 794.55C1056.24 708.633 1067.23 619.78 1055.8 501.266Z" fill="#37474F"/>
<path d="M71.0307 270.616C12.3475 368.65 -24.4868 586.632 19.1008 747.851C28.2789 782.464 43.0625 815.342 62.865 845.178L305.631 705.102L512.314 585.617L998.112 305.177C977.896 263.245 954.987 226.565 933.492 199.243C715.862 -77.533 279.06 -77.0033 71.0307 270.616Z" fill="#263238"/>
<g opacity="0.2">
<path d="M71.4052 437.11C73.8837 435.495 75.9466 433.318 77.4267 430.757C78.9068 428.195 79.7624 425.321 79.9241 422.367V405.153C79.9241 399.724 76.1061 397.517 71.4052 400.231L15.1937 432.696C12.6116 445.938 10.3163 459.643 8.33008 473.525L71.4052 437.11Z" fill="black"/>
<path d="M51.3652 309.834L71.4045 298.247C73.8829 296.632 75.9458 294.456 77.4259 291.894C78.906 289.333 79.7616 286.459 79.9234 283.505V266.29C80.0545 265.181 79.8592 264.058 79.3613 263.058C78.8635 262.059 78.0847 261.226 77.1206 260.663C75.0754 263.944 73.045 267.261 71.0293 270.616C63.5798 283.22 57.0095 296.324 51.3652 309.834Z" fill="black"/>
<path d="M156.992 158.414L173.986 148.593C176.457 146.982 178.514 144.812 179.99 142.258C181.466 139.705 182.32 136.839 182.483 133.894C173.773 141.678 165.276 149.851 156.992 158.414Z" fill="black"/>
<path d="M79.9231 603.493V586.279C79.9231 580.85 76.1051 578.643 71.4042 581.357L0.78125 622.186C1.25207 634.015 2.04658 645.815 3.16477 657.586L71.4042 618.192C73.8769 616.581 75.9362 614.411 77.416 611.858C78.8958 609.305 79.7546 606.439 79.9231 603.493Z" fill="black"/>
<path d="M284.996 346.403V329.189C284.996 323.76 281.178 321.553 276.477 324.267L197.688 369.753C195.213 371.369 193.153 373.547 191.677 376.108C190.2 378.67 189.349 381.543 189.191 384.496V401.71C189.191 407.139 192.987 409.346 197.688 406.631L276.477 361.146C278.955 359.531 281.018 357.354 282.498 354.793C283.979 352.231 284.834 349.357 284.996 346.403Z" fill="black"/>
<path d="M21.1074 754.803C22.7847 760.475 24.5503 766.08 26.4704 771.576V760.806C26.4704 756.679 24.2413 754.427 21.1074 754.803Z" fill="black"/>
<path d="M21.6601 553.152C24.1357 551.536 26.1952 549.359 27.6716 546.797C29.1479 544.235 29.9994 541.362 30.157 538.41V521.195C30.157 515.766 26.361 513.559 21.6601 516.274L2.50365 527.375C1.50316 539.999 0.819 552.689 0.451172 565.445L21.6601 553.152Z" fill="black"/>
<path d="M300.136 257.065L378.903 211.58C381.381 209.965 383.444 207.788 384.924 205.227C386.404 202.665 387.26 199.791 387.422 196.837V179.601C387.422 174.194 383.604 171.987 378.903 174.701L300.136 220.187C297.658 221.802 295.595 223.979 294.115 226.54C292.635 229.101 291.779 231.976 291.617 234.929V252.144C291.617 257.573 295.435 259.78 300.136 257.065Z" fill="black"/>
<path d="M352.86 543.441L431.649 497.956C434.123 496.343 436.181 494.17 437.658 491.612C439.134 489.054 439.986 486.184 440.146 483.235V465.999C440.146 460.57 436.35 458.385 431.649 461.1L352.86 506.585C350.386 508.198 348.328 510.371 346.851 512.929C345.375 515.487 344.522 518.357 344.363 521.306V538.542C344.363 543.971 348.159 546.156 352.86 543.441Z" fill="black"/>
<path d="M147.877 208.799L226.644 163.225C229.122 161.61 231.185 159.433 232.665 156.872C234.145 154.31 235.001 151.436 235.162 148.482V131.268C235.162 125.839 231.344 123.632 226.644 126.346L147.877 171.92C145.394 173.533 143.327 175.709 141.843 178.27C140.359 180.832 139.5 183.707 139.336 186.663V203.877C139.336 209.306 143.176 211.513 147.877 208.799Z" fill="black"/>
<path d="M291.617 342.696C291.617 348.125 295.435 350.332 300.136 347.617L378.903 302.132C381.381 300.516 383.444 298.34 384.924 295.779C386.404 293.217 387.26 290.343 387.422 287.389V270.175C387.422 264.746 383.604 262.539 378.903 265.253L300.136 310.739C297.658 312.354 295.595 314.531 294.115 317.092C292.635 319.653 291.779 322.528 291.617 325.481V342.696Z" fill="black"/>
<path d="M173.919 564.54L95.1966 610.026C92.7182 611.641 90.6553 613.817 89.1752 616.379C87.6951 618.94 86.8395 621.814 86.6777 624.768V641.983C86.6777 647.412 90.4958 649.619 95.1966 646.904L173.985 601.418C176.461 599.802 178.52 597.625 179.997 595.063C181.473 592.502 182.325 589.628 182.482 586.676V569.462C182.416 564.032 178.62 561.826 173.919 564.54Z" fill="black"/>
<path d="M489.36 1.38806C465.721 3.13684 442.233 6.53651 419.068 11.5622L402.626 21.0521C400.148 22.6673 398.085 24.8439 396.605 27.4053C395.125 29.9667 394.269 32.8408 394.107 35.7947V53.0311C394.107 58.4602 397.925 60.6451 402.626 57.9306L481.415 12.445C485.346 9.87497 488.178 5.93311 489.36 1.38806Z" fill="black"/>
<path d="M235.162 510.822V493.608C235.162 488.179 231.344 485.972 226.644 488.687L147.877 534.172C145.394 535.785 143.327 537.96 141.843 540.522C140.359 543.083 139.5 545.959 139.336 548.915V566.129C139.336 571.558 143.154 573.765 147.855 571.051L226.622 525.565C229.104 523.952 231.171 521.777 232.655 519.215C234.139 516.654 234.998 513.778 235.162 510.822Z" fill="black"/>
<path d="M337.654 632.868V615.653C337.654 610.224 333.858 608.017 329.157 610.732L250.369 656.217C247.89 657.833 245.827 660.009 244.347 662.57C242.867 665.132 242.011 668.006 241.85 670.96V688.174C241.85 693.603 245.668 695.81 250.369 693.096L329.135 647.61C331.615 645.996 333.679 643.82 335.159 641.258C336.639 638.697 337.494 635.822 337.654 632.868Z" fill="black"/>
<path d="M607.61 442.075L686.399 396.59C688.877 394.974 690.94 392.798 692.42 390.237C693.9 387.675 694.756 384.801 694.918 381.847V364.633C694.918 359.204 691.1 356.997 686.399 359.711L607.61 405.197C605.135 406.813 603.075 408.99 601.599 411.552C600.122 414.114 599.271 416.987 599.113 419.939V437.154C599.113 442.583 602.909 444.79 607.61 442.075Z" fill="black"/>
<path d="M660.357 456.752L739.146 411.266C741.621 409.65 743.681 407.473 745.157 404.911C746.633 402.349 747.485 399.476 747.642 396.524V379.309C747.642 373.88 743.846 371.673 739.146 374.388L660.357 419.873C657.878 421.489 655.815 423.665 654.335 426.226C652.855 428.788 652 431.662 651.838 434.616V451.83C651.838 457.281 655.766 459.488 660.357 456.752Z" fill="black"/>
<path d="M599.113 198.978V216.192C599.113 221.621 602.909 223.828 607.61 221.114L686.399 175.628C688.877 174.013 690.94 171.837 692.42 169.275C693.9 166.714 694.756 163.84 694.918 160.886V143.671C694.918 138.242 691.1 136.035 686.399 138.75L607.61 184.235C605.135 185.852 603.075 188.029 601.599 190.591C600.122 193.152 599.271 196.026 599.113 198.978Z" fill="black"/>
<path d="M652.544 35.2209C650.066 36.8361 648.003 39.0126 646.523 41.574C645.043 44.1354 644.187 47.0096 644.025 49.9635V67.1999C644.025 72.607 647.843 74.8139 652.544 72.0994L715.112 35.883C702.032 30.704 688.739 26.0694 675.232 21.9791L652.544 35.2209Z" fill="black"/>
<path d="M636.631 121.977L557.865 167.462C555.386 169.077 553.323 171.254 551.843 173.815C550.363 176.377 549.507 179.251 549.346 182.205V199.419C549.346 204.848 553.164 207.055 557.865 204.341L636.631 158.811C639.11 157.196 641.173 155.019 642.653 152.458C644.133 149.896 644.988 147.022 645.15 144.068V126.854C645.15 121.469 641.332 119.262 636.631 121.977Z" fill="black"/>
<path d="M747.642 198.205C747.642 192.776 743.846 190.569 739.146 193.284L660.357 238.769C657.878 240.385 655.815 242.561 654.335 245.123C652.855 247.684 652 250.558 651.838 253.512V270.726C651.838 276.156 655.656 278.362 660.357 275.648L739.146 230.162C741.621 228.546 743.681 226.369 745.157 223.807C746.633 221.246 747.485 218.372 747.642 215.42V198.205Z" fill="black"/>
<path d="M944.129 256.271L865.429 301.734C862.951 303.349 860.888 305.526 859.408 308.087C857.928 310.649 857.072 313.523 856.91 316.477V333.713C856.91 339.142 860.706 341.327 865.407 338.613L944.196 293.127C946.674 291.512 948.737 289.335 950.217 286.774C951.697 284.213 952.553 281.338 952.715 278.384V261.17C952.648 255.741 948.83 253.556 944.129 256.271Z" fill="black"/>
<path d="M943.003 211.778L915.107 227.933C912.628 229.549 910.565 231.725 909.085 234.286C907.605 236.848 906.75 239.722 906.588 242.676V259.89C906.588 265.319 910.406 267.526 915.107 264.812L961.012 238.328C954.994 228.868 948.991 220.018 943.003 211.778Z" fill="black"/>
<path d="M542.66 333.581V316.366C542.66 310.937 538.842 308.73 534.141 311.445L455.352 356.93C452.879 358.549 450.821 360.727 449.345 363.288C447.869 365.849 447.016 368.722 446.855 371.673V388.887C446.855 394.316 450.674 396.523 455.352 393.809L534.141 348.323C536.619 346.708 538.682 344.532 540.162 341.97C541.643 339.409 542.498 336.535 542.66 333.581Z" fill="black"/>
<path d="M841.637 134.203L762.848 179.689C760.373 181.305 758.313 183.483 756.837 186.044C755.361 188.606 754.509 191.479 754.352 194.432V211.646C754.352 217.075 758.147 219.282 762.848 216.567L841.637 171.082C844.116 169.467 846.178 167.29 847.659 164.729C849.139 162.167 849.994 159.293 850.156 156.339V139.125C850.156 133.696 846.338 131.489 841.637 134.203Z" fill="black"/>
<path d="M481.415 477.872L402.626 523.358C400.148 524.973 398.085 527.15 396.605 529.711C395.125 532.272 394.269 535.147 394.107 538.1V555.315C394.107 560.744 397.925 562.951 402.626 560.236L481.415 514.751C483.893 513.136 485.956 510.959 487.437 508.398C488.917 505.836 489.772 502.962 489.934 500.008V482.794C489.912 477.365 486.094 475.158 481.415 477.872Z" fill="black"/>
<path d="M70.6999 807.483C73.1755 805.867 75.235 803.689 76.7114 801.128C78.1877 798.566 79.0392 795.693 79.1968 792.74V775.526C79.1968 770.097 75.4008 767.89 70.6999 770.605L34.2188 791.659C38.36 801.508 42.9931 811.142 48.1006 820.526L70.6999 807.483Z" fill="black"/>
<path d="M804.096 301.778V318.993C804.096 324.422 807.914 326.629 812.615 323.914L891.381 278.429C893.86 276.814 895.923 274.637 897.403 272.076C898.883 269.514 899.738 266.64 899.9 263.686V246.472C899.9 241.043 896.082 238.836 891.381 241.55L812.615 287.036C810.136 288.651 808.073 290.828 806.593 293.389C805.113 295.95 804.257 298.825 804.096 301.778Z" fill="black"/>
</g>
<path opacity="0.15" d="M350.081 854.734C349.201 854.23 348.295 853.773 347.366 853.366L347.697 853.167L193.21 768.64V711.767L158.428 731.828V788.702L301.748 867.115C302.057 871.044 304.794 874.95 310.002 877.952C321.037 884.352 338.98 884.352 350.059 877.952C355.62 874.774 358.379 870.536 358.379 866.321C358.379 862.105 355.62 857.912 350.081 854.734Z" fill="black"/>
<path opacity="0.15" d="M304.727 882.101C303.842 881.592 302.928 881.135 301.99 880.732L302.321 880.534L147.833 796.007V739.244L113.096 759.106V815.98L256.416 894.393C256.725 898.322 259.44 902.228 264.67 905.23C275.705 911.63 293.648 911.63 304.727 905.23C310.288 902.03 313.047 897.814 313.047 893.599C313.047 889.384 310.288 885.279 304.727 882.101Z" fill="black"/>
<path opacity="0.15" d="M830.515 982.628C815.157 973.39 798.574 966.361 781.255 961.75C759.053 955.394 732.702 950.715 713.899 943.013C689.357 933.015 678.367 918.207 677.638 901.787C677.219 892.495 681.17 881.527 700.988 871.706C706.791 868.802 712.949 866.673 719.306 865.372C728.186 863.74 737.283 863.673 746.187 865.173C786.177 871.088 805.047 886.492 820.429 901.875C835.812 917.258 852.894 924.982 883.328 937.186C896.349 942.373 910.209 947.294 922.59 952.635L922.877 952.768C929.091 955.143 935.144 957.922 940.996 961.088C949.073 966.164 956.334 971.571 959.932 977.883C963.529 984.195 963.264 991.522 956.599 999.313C954.395 1001.94 951.575 1003.99 948.389 1005.27C944.346 1006.9 940.134 1008.07 935.832 1008.76C927.375 1010.29 918.773 1010.88 910.187 1010.5C903.383 1010.15 896.62 1009.23 889.971 1007.74C868.744 1003.2 848.57 994.679 830.515 982.628Z" fill="black"/>
<path d="M186.919 703.469L198.263 710.09L175.531 749.351L164.187 742.731C161.274 741.053 159.486 737.456 159.486 732.336C159.785 726.762 161.394 721.338 164.182 716.503C166.969 711.667 170.858 707.557 175.531 704.506C179.989 702.012 184.006 701.725 186.919 703.469Z" fill="#455A64"/>
<path d="M170.83 738.957C171.133 733.382 172.746 727.957 175.538 723.122C178.329 718.286 182.221 714.177 186.897 711.127C195.725 706.007 202.964 710.156 202.964 720.396C202.66 725.971 201.047 731.396 198.256 736.231C195.465 741.066 191.573 745.176 186.897 748.226C178.025 753.346 170.83 749.197 170.83 738.957Z" fill="#263238"/>
<g opacity="0.3">
<path d="M175.531 736.242C175.744 732.298 176.885 728.46 178.86 725.04C180.834 721.619 183.588 718.713 186.897 716.556C193.165 712.937 198.263 715.872 198.263 723.177C198.05 727.121 196.91 730.959 194.935 734.379C192.96 737.8 190.206 740.707 186.897 742.863C180.629 746.416 175.531 743.481 175.531 736.242Z" fill="black"/>
</g>
<g opacity="0.3">
<path d="M190.23 718.476C190.017 722.42 188.876 726.258 186.901 729.679C184.927 733.099 182.173 736.006 178.864 738.162C177.952 738.675 176.981 739.075 175.973 739.354C175.681 738.342 175.532 737.295 175.531 736.242C175.744 732.298 176.885 728.46 178.86 725.04C180.834 721.619 183.588 718.713 186.897 716.556C187.815 716.039 188.794 715.639 189.81 715.364C190.084 716.379 190.224 717.425 190.23 718.476Z" fill="black"/>
</g>
<path d="M178.864 743.658L312.01 820.614C312.624 820.967 313.135 821.474 313.492 822.086C313.848 822.698 314.037 823.393 314.04 824.102V869.653H346.174V830.082V819.82C346.176 814.76 344.845 809.789 342.315 805.407C339.785 801.025 336.145 797.387 331.762 794.859L194.93 715.784C193.644 715.185 192.221 714.942 190.809 715.077C189.396 715.213 188.046 715.724 186.897 716.556C183.588 718.712 180.834 721.619 178.859 725.04C176.884 728.46 175.744 732.298 175.531 736.242C175.37 737.666 175.596 739.107 176.187 740.412C176.777 741.717 177.71 742.839 178.886 743.658H178.864Z" fill="#455A64"/>
<path d="M346.174 821.343C346.166 819.111 345.891 816.889 345.358 814.722C345.468 815.583 345.821 821.718 334.014 825.646C321.258 829.884 314.041 825.646 314.041 825.646V869.675H346.174V831.605V821.343Z" fill="#37474F"/>
<g opacity="0.3">
<path d="M178.864 743.657L312.01 820.614C312.624 820.967 313.135 821.474 313.492 822.086C313.848 822.698 314.037 823.393 314.04 824.101V869.653H325.958V835.644V831.23C325.951 826.161 324.609 821.184 322.067 816.798C319.526 812.413 315.874 808.774 311.48 806.247L177.275 728.672C176.236 731.068 175.645 733.633 175.531 736.242C175.37 737.666 175.596 739.107 176.187 740.412C176.777 741.717 177.71 742.839 178.886 743.657H178.864Z" fill="black"/>
</g>
<path d="M352.838 851.335V864.467C352.838 867.843 350.631 871.242 346.217 873.802C341.229 876.338 335.713 877.659 330.117 877.659C324.522 877.659 319.005 876.338 314.017 873.802C309.603 871.242 307.396 867.843 307.396 864.489V851.247H314.172C314.203 852.13 314.414 852.996 314.794 853.794C315.174 854.591 315.713 855.302 316.379 855.882L316.931 856.411C317.545 856.936 318.202 857.408 318.895 857.824C322.419 859.618 326.317 860.554 330.272 860.554C334.226 860.554 338.125 859.618 341.649 857.824C342.345 857.414 343.003 856.941 343.613 856.411L344.165 855.882C344.829 855.301 345.368 854.59 345.748 853.793C346.127 852.996 346.34 852.129 346.372 851.247L352.838 851.335Z" fill="#263238"/>
<path d="M352.838 851.336C352.838 854.69 350.631 858.089 346.217 860.649C341.226 863.174 335.711 864.49 330.117 864.49C324.524 864.49 319.009 863.174 314.017 860.649C309.603 858.089 307.396 854.69 307.396 851.336C307.396 847.981 309.603 844.604 314.017 842.044V851.402C314.048 852.284 314.26 853.151 314.64 853.948C315.019 854.746 315.559 855.456 316.224 856.036L316.776 856.566C317.391 857.091 318.048 857.563 318.74 857.978C322.264 859.773 326.163 860.709 330.117 860.709C334.072 860.709 337.97 859.773 341.494 857.978C342.191 857.569 342.848 857.096 343.458 856.566L344.01 856.036C344.675 855.455 345.214 854.745 345.593 853.947C345.973 853.15 346.185 852.284 346.217 851.402V842.11C350.631 844.604 352.838 847.981 352.838 851.336Z" fill="#455A64"/>
<path d="M140.528 730.261L151.872 736.882L129.162 776.144L117.797 769.523C114.883 767.846 113.096 764.249 113.096 759.128C113.399 753.554 115.012 748.129 117.803 743.293C120.595 738.458 124.486 734.349 129.162 731.299C133.598 728.805 137.637 728.562 140.528 730.261Z" fill="#455A64"/>
<path d="M124.439 765.727C124.743 760.152 126.356 754.727 129.147 749.892C131.938 745.057 135.83 740.948 140.506 737.897C149.334 732.777 156.573 736.926 156.573 747.167C156.27 752.741 154.657 758.166 151.865 763.002C149.074 767.837 145.182 771.946 140.506 774.996C131.634 780.139 124.439 775.99 124.439 765.727Z" fill="#263238"/>
<g opacity="0.3">
<path d="M129.162 763.035C129.375 759.093 130.512 755.257 132.483 751.837C134.454 748.417 137.202 745.509 140.506 743.348C146.796 739.729 151.872 742.664 151.872 749.969C151.662 753.914 150.523 757.754 148.548 761.175C146.573 764.596 143.817 767.502 140.506 769.656C134.238 773.209 129.162 770.274 129.162 763.035Z" fill="black"/>
</g>
<g opacity="0.3">
<path d="M143.751 745.269C143.541 749.213 142.402 753.053 140.427 756.474C138.452 759.895 135.696 762.801 132.385 764.955C131.474 765.471 130.503 765.871 129.494 766.146C129.22 765.132 129.079 764.086 129.074 763.035C129.287 759.093 130.424 755.257 132.395 751.837C134.366 748.417 137.114 745.509 140.418 743.348C141.338 742.835 142.316 742.435 143.331 742.157C143.604 743.172 143.745 744.218 143.751 745.269Z" fill="black"/>
</g>
<path d="M132.495 770.406L265.642 847.385C266.25 847.742 266.756 848.251 267.108 848.862C267.46 849.474 267.647 850.166 267.65 850.872V894.901H299.783V856.875V846.613C299.783 841.553 298.451 836.583 295.922 832.202C293.392 827.82 289.753 824.182 285.372 821.652L148.54 742.576C147.249 741.978 145.823 741.735 144.407 741.871C142.992 742.006 141.638 742.516 140.484 743.349C137.181 745.509 134.432 748.417 132.461 751.837C130.491 755.257 129.353 759.093 129.141 763.035C128.994 764.445 129.225 765.869 129.811 767.161C130.396 768.453 131.315 769.565 132.473 770.384L132.495 770.406Z" fill="#455A64"/>
<path d="M299.784 846.613C299.775 844.381 299.501 842.159 298.967 839.992C299.1 840.874 299.431 846.988 287.623 850.916C274.867 855.154 267.65 850.916 267.65 850.916V894.945H299.784V856.875V846.613Z" fill="#37474F"/>
<g opacity="0.3">
<path d="M132.495 770.406L265.641 847.385C266.25 847.742 266.755 848.251 267.107 848.862C267.46 849.474 267.646 850.166 267.649 850.872V894.901H279.567V862.459V858.045C279.571 852.979 278.238 848.002 275.704 843.616C273.17 839.229 269.524 835.589 265.133 833.062L130.906 755.465C129.856 757.857 129.265 760.425 129.162 763.035C129.015 764.445 129.247 765.869 129.832 767.161C130.418 768.453 131.337 769.565 132.495 770.384V770.406Z" fill="black"/>
</g>
<path d="M306.469 878.128V891.26C306.469 894.636 304.262 898.035 299.848 900.595C294.857 903.13 289.337 904.452 283.738 904.452C278.139 904.452 272.619 903.13 267.627 900.595C263.213 898.035 261.006 894.636 261.006 891.282V878.04H267.781C267.808 878.923 268.018 879.791 268.398 880.589C268.778 881.387 269.319 882.097 269.988 882.674C270.154 882.862 270.33 883.039 270.518 883.204C271.127 883.736 271.784 884.208 272.482 884.617C276.01 886.411 279.912 887.347 283.87 887.347C287.828 887.347 291.73 886.411 295.258 884.617C295.952 884.203 296.609 883.73 297.222 883.204C297.421 883.028 297.575 882.851 297.752 882.674C298.41 882.088 298.944 881.376 299.323 880.58C299.702 879.784 299.918 878.92 299.959 878.04L306.469 878.128Z" fill="#263238"/>
<path d="M306.469 878.128C306.469 881.483 304.262 884.881 299.848 887.441C294.853 889.967 289.335 891.282 283.738 891.282C278.141 891.282 272.622 889.967 267.627 887.441C263.213 884.881 261.006 881.483 261.006 878.128C261.006 874.773 263.213 871.397 267.627 868.837V878.194C267.654 879.077 267.863 879.946 268.243 880.743C268.623 881.541 269.165 882.251 269.834 882.829C269.999 883.016 270.176 883.193 270.363 883.358C270.972 883.89 271.63 884.363 272.328 884.771C275.855 886.566 279.757 887.501 283.716 887.501C287.674 887.501 291.576 886.566 295.104 884.771C295.798 884.357 296.455 883.885 297.068 883.358C297.266 883.182 297.421 883.005 297.597 882.829C298.255 882.242 298.789 881.53 299.168 880.734C299.547 879.938 299.764 879.075 299.804 878.194V868.903C304.24 871.397 306.469 874.773 306.469 878.128Z" fill="#455A64"/>
<path d="M508.893 224.755C508.893 156.339 484.859 108.25 446.039 85.8267C407.218 63.4039 353.567 66.6482 294.287 100.878C175.773 169.294 79.748 335.7 79.748 472.554C79.748 540.97 103.782 589.06 142.602 611.46C181.423 633.861 235.074 630.639 294.354 596.431C412.824 528.015 508.893 361.609 508.893 224.755Z" fill="#BA68C8"/>
<path opacity="0.95" d="M508.893 224.755C508.893 156.339 484.859 108.25 446.039 85.8267C407.218 63.4039 353.567 66.6482 294.287 100.878C175.773 169.294 79.748 335.7 79.748 472.554C79.748 540.97 103.782 589.06 142.602 611.46C181.423 633.861 235.074 630.639 294.354 596.431C412.824 528.015 508.893 361.609 508.893 224.755Z" fill="white"/>
<g opacity="0.2">
<path d="M173.919 564.54L121.15 594.996C127.535 601.397 134.733 606.932 142.558 611.46C144.941 612.851 147.369 614.131 149.863 615.3L173.919 601.418C176.395 599.802 178.454 597.625 179.93 595.063C181.407 592.502 182.258 589.628 182.416 586.676V569.462C182.416 564.032 178.62 561.826 173.919 564.54Z" fill="#BA68C8"/>
<path d="M291.617 252.144C291.617 257.573 295.435 259.78 300.136 257.065L378.903 211.58C381.381 209.965 383.444 207.788 384.924 205.227C386.404 202.665 387.26 199.791 387.422 196.837V179.601C387.422 174.194 383.604 171.987 378.903 174.701L300.136 220.187C297.658 221.802 295.595 223.979 294.115 226.54C292.635 229.101 291.779 231.976 291.617 234.929V252.144Z" fill="#BA68C8"/>
<path d="M378.903 265.253L300.136 310.739C297.658 312.354 295.595 314.531 294.115 317.092C292.635 319.653 291.779 322.528 291.617 325.481V342.696C291.617 348.125 295.435 350.332 300.136 347.617L378.903 302.132C381.381 300.516 383.444 298.34 384.924 295.779C386.404 293.217 387.26 290.343 387.422 287.389V270.175C387.422 264.746 383.604 262.539 378.903 265.253Z" fill="#BA68C8"/>
<path d="M235.162 148.571V144.554C224.008 154.757 213.386 165.527 203.338 176.82L226.643 163.225C229.11 161.619 231.166 159.456 232.646 156.911C234.125 154.366 234.987 151.509 235.162 148.571Z" fill="#BA68C8"/>
<path d="M430.214 461.916L352.86 506.585C350.386 508.198 348.328 510.371 346.851 512.929C345.375 515.487 344.522 518.357 344.363 521.306V538.542C344.363 543.971 348.159 546.156 352.86 543.441L377.137 529.405C396.759 508.496 414.519 485.914 430.214 461.916Z" fill="#BA68C8"/>
<path d="M455.352 356.931C452.879 358.55 450.821 360.728 449.345 363.288C447.869 365.849 447.016 368.722 446.855 371.673V388.888C446.855 394.317 450.674 396.524 455.352 393.809L472.456 383.944C479.15 368.553 485.043 352.825 490.112 336.825L455.352 356.931Z" fill="#BA68C8"/>
<path d="M235.162 510.823V493.608C235.162 488.179 231.344 485.972 226.644 488.687L147.877 534.172C145.394 535.785 143.327 537.961 141.843 540.522C140.359 543.084 139.5 545.959 139.336 548.915V566.129C139.336 571.558 143.154 573.765 147.855 571.051L226.622 525.565C229.104 523.953 231.171 521.777 232.655 519.216C234.139 516.654 234.998 513.779 235.162 510.823Z" fill="#BA68C8"/>
<path d="M276.411 324.334L197.622 369.819C195.146 371.436 193.087 373.613 191.61 376.174C190.134 378.736 189.283 381.61 189.125 384.562V401.776C189.125 407.205 192.921 409.412 197.622 406.698L276.411 361.212C278.91 359.598 280.991 357.414 282.484 354.84C283.976 352.266 284.837 349.375 284.996 346.403V329.189C284.996 323.826 281.111 321.619 276.411 324.334Z" fill="#BA68C8"/>
</g>
<path opacity="0.2" d="M645.747 550.746L222.009 623.753C191.862 628.719 164.805 624.305 142.558 611.482C103.738 589.037 79.748 540.97 79.748 472.554C79.748 335.722 175.839 169.294 294.354 100.856C353.611 66.6481 407.262 63.3377 446.083 85.8267C468.285 98.6491 485.631 119.858 496.424 148.46L645.747 550.746Z" fill="#BA68C8"/>
<path opacity="0.2" d="M645.747 550.746L222.009 623.753C191.862 628.719 164.805 624.305 142.558 611.482C103.738 589.037 79.748 540.97 79.748 472.554C79.748 335.722 175.839 169.294 294.354 100.856C353.611 66.6481 407.262 63.3377 446.083 85.8267C468.285 98.6491 485.631 119.858 496.424 148.46L645.747 550.746Z" fill="white"/>
<path d="M931.373 538.851L909.855 487.848C899.571 461.563 903.433 426.053 903.433 426.053C915.814 425.832 927.423 430.025 935.456 444.569C943.49 459.113 959.336 510.778 962.955 522.012C966.177 531.674 967.961 541.757 968.252 551.938C968.958 564.915 965.648 588.795 964.787 601.705C964.39 607.686 964.456 613.424 964.478 619.361C964.5 625.298 962.889 631.72 962.05 637.966C961.556 640.919 960.293 643.69 958.387 645.999C957.195 647.478 955.297 647.963 954.171 649.354C953.046 650.744 953.068 652.797 951.346 654.077C949.625 655.357 946.933 655.291 945.321 656.703C943.772 658.377 942.121 659.954 940.378 661.426C938.68 662.271 937.217 663.522 936.118 665.068C935.169 666.59 934.551 669.724 932.367 669.901C930.182 670.077 929.1 667.848 928.615 665.862C927.972 661.92 928.606 657.876 930.424 654.32C932.278 650.612 933.249 646.529 935.545 643.064C937.437 639.635 938.545 635.828 938.789 631.919C939.076 629.293 938.259 626.159 935.324 628.211C931.859 630.617 928.526 634.964 923.848 635.031C920.603 635.031 919.985 632.625 921.42 630.219C923.803 626.259 925.891 622.128 927.666 617.86C929.475 613.447 930.822 609.033 932.764 604.729C933.815 602.48 935.017 600.305 936.361 598.218C940.003 592.37 938.568 585.573 937.928 579.128C937.001 570.19 933.338 550.261 931.373 538.851Z" fill="#FFA8A7"/>
<path d="M901.336 424.022C918.793 425.325 928.548 428.9 937.861 446.092C947.175 463.284 959.6 504.731 962.314 513.272C965.836 523.579 968.06 534.284 968.935 545.141C969.43 551.36 969.475 557.608 969.068 563.834C969.068 563.834 966.706 568.402 952.736 568.402C938.766 568.402 934.639 565.953 934.639 565.953L930.225 539.292L901.535 475.997L901.336 424.022Z" fill="#455A64"/>
<path d="M697.7 891.834C696.287 891.216 695.118 894.791 695.493 896.777C696.508 902.537 702.114 910.173 711.868 915.934C721.623 921.694 743.34 925.6 749.696 927.388C756.052 929.175 765.873 935.885 771.766 938.908C782.58 944.426 791.408 943.786 796.307 941.336C797.164 940.793 797.9 940.08 798.469 939.241C799.039 938.402 799.43 937.455 799.617 936.458C800.897 932.044 800.809 931.095 800.324 930.963L697.7 891.834Z" fill="#263238"/>
<path d="M803.127 918.008C802.575 923.497 801.214 928.874 799.089 933.964C797.824 935.189 796.316 936.133 794.661 936.734C793.007 937.335 791.244 937.579 789.488 937.451C781.278 937.451 774.04 934.56 766.492 930.146C761.642 927.097 756.4 924.721 750.911 923.084C744.29 921.34 729.525 918.162 722.992 916.154C716.886 914.278 711.229 911.168 706.374 907.017C702.732 903.641 697.546 897.108 697.281 893.312C698.385 885.058 700.68 880.688 706.109 879.496C711.538 878.305 718.711 879.872 728.311 882.189C731.18 882.895 734.756 883.866 736.323 884.197C742.193 885.389 747.622 886.691 752.014 887.795C755.664 889.013 759.54 889.398 763.358 888.92C765.1 888.748 766.726 887.966 767.948 886.713C769.493 885.014 770.398 882.101 772.208 882.498C772.208 882.498 802.509 898.322 805.025 899.425C807.828 900.551 804.496 904.192 803.127 918.008Z" fill="#37474F"/>
<path d="M697.281 893.224C697.767 887.486 699.775 879.982 706.528 879.077C716.636 877.709 726.524 881.836 736.234 884.109L724.449 881.394C710.854 878.547 699.334 875.369 697.281 893.224Z" fill="white"/>
<path d="M733.849 883.006C732.62 883.439 731.499 884.131 730.561 885.036C729.547 886.017 728.651 887.113 727.89 888.302C726.941 889.803 728.839 890.774 730.252 889.141C731.341 887.759 732.593 886.514 733.982 885.433C734.966 884.696 736.172 884.314 737.402 884.352L739.08 884.705C739.058 883.359 735.35 882.697 733.849 883.006Z" fill="#FAFAFA"/>
<path d="M748.857 885.985C748.335 885.755 747.772 885.636 747.202 885.636C746.632 885.636 746.068 885.755 745.546 885.985C744.203 886.537 743.04 887.454 742.192 888.633C741.114 890.022 740.154 891.498 739.323 893.047C738.859 894.062 741.353 894.835 741.993 893.776C742.822 892.399 743.72 891.066 744.686 889.781C745.193 889.141 747.378 886.78 749.1 887.066L749.894 887.265C750.026 886.912 749.607 886.493 749.298 886.294L748.857 885.985Z" fill="#FAFAFA"/>
<path d="M757.443 888.479C756.673 888.388 755.896 888.559 755.236 888.964C754.386 889.576 753.641 890.322 753.029 891.171C752.013 892.636 751.217 894.242 750.667 895.938C750.204 897.285 752.874 897.726 753.161 896.843C753.854 894.445 755.171 892.274 756.979 890.553C757.786 889.811 758.764 889.28 759.826 889.008C759.826 888.744 759.495 888.589 759.23 888.545C758.965 888.501 757.84 888.479 757.443 888.479Z" fill="#FAFAFA"/>
<path d="M816.877 865.615C816.877 865.615 807.365 894.504 804.451 901.081C803.525 903.288 799.133 902.736 796.705 902.979C793.786 903.101 790.908 903.705 788.186 904.766C781.08 908.386 776.6 908.32 776.401 897.881C776.401 895.674 775.386 894.526 772.781 894.173C770.792 894.213 768.814 893.868 766.955 893.158C766.734 892.893 766.955 892.496 767.33 892.275C768.508 891.527 769.511 890.535 770.272 889.366C771.034 888.197 771.536 886.879 771.744 885.499C774.702 873.14 776.158 862.481 779.491 847.297L816.877 865.615Z" fill="#FFA8A7"/>
<path d="M839.873 579.856C839.873 579.856 825.329 597.269 816.545 629.866C808.583 660.134 802.524 690.871 798.404 721.897C796.307 735.779 794.762 745.666 790.989 770.936C787.855 791.968 774.039 870.249 774.039 870.249C774.039 870.249 784.169 879.077 792.688 882.255C800.633 885.257 807.982 886.448 810.895 885.257C810.895 885.257 820.672 860.141 832.767 827.257C838.603 812.193 843.259 796.698 846.692 780.911C848.281 772.767 847.906 758.29 847.752 750.985L912.769 650.568C918.019 644.349 922.128 637.251 924.907 629.601C933.448 608.15 922.546 577.208 922.546 577.208L839.873 579.856Z" fill="#263238"/>
<path d="M816.545 629.866C806.173 668.621 800.545 710.156 794.74 749.881C788.782 788.856 780.947 831.274 774.039 870.227C780.13 831.075 787.965 788.79 793.637 749.727C799.772 710.001 805.334 668.444 816.545 629.866Z" fill="white"/>
<path d="M903.853 608.062H824.005C821.028 615.153 818.536 622.438 816.546 629.866C809.131 657.739 803.441 686.042 799.508 714.614C801.45 727.679 803.635 741.098 805.687 750.323C811.05 774.599 814.383 791.902 818.642 801.944C822.902 811.985 833.076 826.22 833.12 826.22C838.792 811.432 843.33 796.234 846.693 780.757C848.282 772.613 847.907 758.135 847.752 750.83L894.981 678L898.645 655.379C910.717 635.693 909.371 620.95 903.853 608.062Z" fill="black"/>
<path d="M931.772 911.122C927.667 904.501 925.438 891.944 916.433 866.277L881.32 894.967L902.132 928.072C902.791 929.766 903.294 931.516 903.633 933.302C908.113 939.813 931.772 911.122 931.772 911.122Z" fill="#FFA8A7"/>
<path d="M944.151 925.115C944.151 924.739 944.306 921.65 944.151 921.274C943.268 917.942 941.216 917.015 938.568 915.161C935.915 913.366 933.472 911.278 931.285 908.937C930.402 907.702 930.225 907.062 928.857 906.51C927.074 905.952 925.191 905.79 923.338 906.034C921.486 906.278 919.709 906.922 918.131 907.922C910.539 911.895 908.222 916.75 908.663 921.914C908.994 925.865 909.325 931.14 905.816 933.501C904.36 934.494 902.064 928.16 902.064 928.16C899.857 931.758 902.947 936.767 904.514 944.094C905.426 948.142 905.501 952.332 904.735 956.409C903.962 962.832 903.08 962.81 899.659 963.251C896.724 963.648 888.381 963.096 883.305 966.628C881.372 967.756 879.84 969.46 878.922 971.502C878.004 973.543 877.746 975.821 878.185 978.016C879.09 980.487 886.704 992.471 914.468 987.991C922.523 986.689 939.45 974.021 939.208 972.851C939.064 971.642 939.064 970.419 939.208 969.21C939.208 966.363 939.406 963.516 939.539 960.691C939.434 957.974 939.596 955.254 940.024 952.569C940.537 950.392 940.876 948.179 941.039 945.948C941.569 940.232 942.121 934.538 942.65 928.844C942.937 927.101 944.372 926.836 944.151 925.115Z" fill="#37474F"/>
<path d="M947.661 923.989C950.397 926.637 948.72 934.339 945.056 943.565C943.423 947.648 940.4 954.71 941.282 962.191C942.165 969.673 942.32 973.226 940.4 976.735C937.376 982.231 921.221 989.271 911.709 991.478C917.462 983.408 920.813 973.874 921.376 963.979C922.347 947.449 923.582 936.789 931.174 929.44C940.731 920.215 947.661 923.989 947.661 923.989Z" fill="black"/>
<path d="M878.251 978.015C878.251 978.015 883.813 988.454 905.308 988.101C913.783 987.969 918.307 983.842 918.55 970.997C918.815 955.549 920.051 939.835 925.061 932.155C930.071 924.474 938.06 920.723 944.261 921.274C945.71 921.713 946.94 922.682 947.704 923.989C947.704 923.989 941.503 921.958 931.858 929.948C924.73 935.862 922.81 948.199 922.92 963.516C922.92 970.137 923.361 977.596 921.441 982.606C920.551 984.807 919.16 986.771 917.378 988.342C915.597 989.912 913.475 991.047 911.179 991.655C899.482 994.921 883.504 989.448 879.465 984.592C878.775 983.661 878.308 982.584 878.097 981.444C877.887 980.305 877.939 979.132 878.251 978.015Z" fill="#263238"/>
<path d="M904.074 960.448C903.202 961.063 902.583 961.972 902.33 963.008C902.233 964.33 902.496 965.654 903.091 966.839C903.685 968.024 904.589 969.026 905.707 969.739C907.009 970.556 908.134 970.269 906.082 967.532C904.767 965.403 904.072 962.95 904.074 960.448Z" fill="#FAFAFA"/>
<path d="M905.155 952.415C905.155 952.415 904.471 952.856 904.316 955.019C904.672 957.752 906.092 960.234 908.267 961.927C910.474 963.03 909.304 960.426 908.267 959.146C906.738 957.164 905.675 954.863 905.155 952.415Z" fill="#FAFAFA"/>
<path d="M904.47 943.565C904.47 943.565 903.72 943.763 904.47 946.721C905.515 948.589 907.165 950.045 909.149 950.848C910.606 951.024 911.356 950.296 909.524 948.994C908.156 947.979 904.735 944.999 904.47 943.565Z" fill="#FAFAFA"/>
<path d="M890.301 579.856C894.097 583.741 903.543 596.784 905.088 616.845C905.672 630.029 901.532 642.989 893.413 653.393C890.367 697.885 887.476 781.882 887.476 781.882C897.805 796.47 900.431 805.828 907.228 827.522C911.355 840.764 925.657 892.981 925.657 892.981C904.734 896.137 892.022 914.521 892.022 914.521C892.022 914.521 863.023 867.799 843.734 835.291C829.609 811.5 824.754 801.259 820.031 787.775C815.617 775.372 812.527 760.364 808.29 731.409C804.053 702.453 799.903 664.339 797.829 635.825C795.754 607.311 796.946 577.539 796.946 577.539L890.301 579.856Z" fill="#263238"/>
<path d="M892.024 914.521C882.026 898.697 862.274 866.806 852.585 850.806C839.895 829.332 825.748 808.278 818.377 784.2C812.489 759.894 808.067 735.257 805.135 710.421C802.024 685.636 799.552 660.764 797.896 635.825C798.912 648.272 800.111 660.705 801.494 673.123C805.444 710.332 810.322 747.63 819.503 783.913C826.697 807.858 840.734 829.001 853.269 850.431L892.09 914.433L892.024 914.521Z" fill="white"/>
<path d="M928.019 614.726C924.617 613.627 921.635 611.508 919.478 608.657C918.454 606.673 917.711 604.556 917.271 602.368C916.386 598.709 915.182 595.135 913.674 591.686L911.467 592.657C912.902 595.997 914.054 599.452 914.91 602.985C915.402 605.411 916.242 607.752 917.404 609.937C919.982 613.414 923.636 615.943 927.798 617.132C927.887 616.338 927.975 615.653 928.019 614.726Z" fill="black"/>
<path d="M870.879 640.217C871.398 640.22 871.916 640.168 872.424 640.062C875.911 639.29 878.626 636.951 884.033 630.043C888.138 624.768 887.719 620.994 887.035 614.726C886.77 612.409 884.342 600.116 884.21 596.872L881.892 598.152C882.047 601.485 884.386 612.652 884.629 614.991C885.335 621.215 885.644 624.062 882.135 628.542C877.125 634.942 874.742 637.083 871.895 637.723C869.048 638.363 856.931 636.311 853.665 634.059C851.789 632.757 848.655 616.691 846.801 602.522L844.418 602.853C845.345 610.004 848.655 633.53 852.297 635.958C855.541 638.275 866.024 640.349 870.879 640.217Z" fill="black"/>
<path d="M847.553 411.045L851.945 443.223L895.665 440.994L890.942 406.146L847.553 411.045Z" fill="#FFA8A7"/>
<path d="M830.119 350.817C826.764 355.077 816.48 366.685 814.67 369.731L824.469 375.668L830.119 350.817Z" fill="#F28F8F"/>
<path d="M830.119 350.817C825.395 357.458 820.234 363.776 814.67 369.731C819.054 362.838 824.239 356.489 830.119 350.817Z" fill="white"/>
<path d="M854.395 318.485C840.888 317.029 832.126 326.607 828.198 355.364C828.043 356.489 826.388 358.255 825.13 362.558C819.701 381.009 822.725 398.576 825.859 403.255C833.693 409.545 842.389 411.906 854.991 410.825C864.591 410.008 889.088 407.095 901.535 394.118C916.146 378.868 923.605 355.849 913.144 343.932C898.534 327.137 861.898 319.28 854.395 318.485Z" fill="#FFA8A7"/>
<path d="M854.394 318.485C834.09 316.786 831.287 341.592 828.374 356.489C822.834 366.972 821.996 379.574 822.856 391.249C823.061 395.409 824.08 399.488 825.858 403.255C823.916 399.541 822.709 395.487 822.305 391.315C821.069 379.486 821.841 366.707 827.403 356.004C830.073 341.04 834.024 315.815 854.394 318.485Z" fill="white"/>
<path d="M825.902 403.255C827.624 405.837 840.005 412.193 847.773 412.679L847.045 406.632C839.879 406.447 832.769 405.311 825.902 403.255Z" fill="#F28F8F"/>
<path d="M851.767 368.87C851.899 369.332 852.16 369.747 852.518 370.066C852.877 370.386 853.318 370.597 853.792 370.676C854.266 370.755 854.752 370.697 855.195 370.51C855.637 370.324 856.017 370.015 856.292 369.621C857.714 367.538 859.365 365.62 861.213 363.905C863.561 361.971 866.538 360.966 869.578 361.08C880.921 361.94 878.141 376.882 872.579 382.09C863.464 390.587 858.631 383.238 858.631 383.238C858.631 383.238 852.01 397.693 861.61 406.146C861.61 406.146 878.074 413.252 891.007 409.236C900.674 398.819 907.14 392.242 913.651 383.282C929.099 362.051 929.099 341.04 919.19 335.037C919.742 327.512 915.681 316.168 900.188 309.635C885.446 303.39 875.58 304.008 864.877 304.603C854.173 305.199 841.108 310.077 831.198 301.801C829.985 304.789 829.503 308.024 829.791 311.237C830.079 314.45 831.129 317.547 832.854 320.273C831.253 319.503 829.412 319.401 827.735 319.989C826.059 320.576 824.685 321.806 823.915 323.407C823.146 325.008 823.043 326.849 823.631 328.525C824.219 330.201 825.448 331.575 827.049 332.345C825.991 332.95 825.173 333.902 824.735 335.04C824.297 336.178 824.264 337.432 824.644 338.591C825.082 339.728 825.837 340.717 826.818 341.44C827.799 342.163 828.967 342.591 830.183 342.674C832.399 342.803 834.622 342.662 836.804 342.254C839.916 350.95 849.737 353.995 855.585 353.642C855.431 353.642 854.658 354.834 854.548 354.988C854.217 355.474 853.908 355.982 853.621 356.489C853.062 357.527 852.597 358.613 852.231 359.733C851.51 361.991 851.232 364.367 851.414 366.73C851.407 367.458 851.526 368.183 851.767 368.87Z" fill="#455A64"/>
<path d="M831.243 301.801C830.088 304.791 829.653 308.01 829.971 311.2C830.289 314.389 831.352 317.459 833.075 320.163L833.45 320.736L832.81 320.449C831.267 319.768 829.52 319.713 827.938 320.298C826.357 320.882 825.065 322.059 824.336 323.58C823.607 325.101 823.499 326.845 824.034 328.444C824.57 330.043 825.707 331.371 827.204 332.146L827.601 332.345L827.204 332.544C821.664 336.075 825.725 343.115 831.618 342.652C833.391 342.662 835.163 342.529 836.915 342.254C834.303 342.86 831.601 342.972 828.948 342.585C824.048 341.504 822.327 334.728 826.983 332.146V332.544C825.33 331.753 824.058 330.339 823.447 328.611C822.837 326.883 822.938 324.983 823.728 323.33C824.518 321.676 825.933 320.404 827.661 319.794C829.389 319.183 831.289 319.284 832.942 320.074L832.699 320.383C830.967 317.637 829.928 314.511 829.671 311.274C829.413 308.037 829.945 304.786 831.221 301.801H831.243Z" fill="white"/>
<path d="M913.475 428.9C924.819 435.256 933.449 456.443 932.61 474.121C932.08 485.332 928.196 514.221 924.797 539.778C923.738 547.833 927.004 561.428 928.417 577.76C929.52 589.876 929.675 602.765 929.675 602.765C929.675 602.765 914.469 621.568 872.757 624.018C819.481 627.174 795.888 614.285 795.888 614.285C795.888 614.285 795.579 570.896 796.859 536.512C798.757 485.553 798.868 470.656 806.835 453.287C809.461 448.167 812.22 436.757 820.893 434.484C827.779 432.696 843.625 428.9 849.915 427.863C860.199 430.511 886.904 430.732 893.525 425.104L893.414 423.625C904.868 423.647 906.479 424.994 913.475 428.9Z" fill="#BA68C8"/>
<path d="M628.092 559.287C629.835 559.685 632.175 558.78 634.713 556.551C639.862 551.638 643.317 545.215 644.578 538.211C645.041 534.878 644.578 532.429 643.232 531.193L632.793 521.195C631.343 520.025 629.576 519.316 627.72 519.159C625.863 519.002 624.002 519.403 622.376 520.312C613.548 524.859 606.53 537.968 607.545 547.855C608.009 552.291 627.077 559.045 628.092 559.287Z" fill="#455A64"/>
<path d="M644.026 537.196C644.337 535.789 644.182 534.319 643.582 533.009C642.983 531.699 641.973 530.621 640.705 529.937C639.437 529.253 637.98 529.001 636.556 529.22C635.132 529.439 633.819 530.116 632.814 531.149C629.663 533.338 627.071 536.24 625.25 539.618C623.429 542.996 622.429 546.756 622.331 550.592C622.012 552.003 622.164 553.48 622.763 554.797C623.362 556.114 624.377 557.198 625.651 557.884C626.925 558.569 628.388 558.819 629.817 558.594C631.246 558.37 632.563 557.683 633.565 556.639C636.721 554.456 639.315 551.555 641.134 548.176C642.952 544.796 643.943 541.033 644.026 537.196Z" fill="#263238"/>
<path d="M698.759 589.633C699.518 589.932 700.341 590.03 701.149 589.918C701.957 589.806 702.722 589.487 703.371 588.993C705.196 587.721 706.696 586.037 707.75 584.078C708.805 582.119 709.384 579.94 709.44 577.716C709.496 576.903 709.34 576.089 708.988 575.355C708.636 574.62 708.1 573.989 707.432 573.522L640.958 535.607C639.973 535.094 638.874 534.837 637.763 534.86C636.652 534.883 635.565 535.186 634.602 535.739C632.149 537.077 630.138 539.1 628.813 541.561C627.489 544.021 626.908 546.814 627.143 549.599C627.214 550.706 627.563 551.777 628.157 552.714C628.751 553.651 629.571 554.424 630.541 554.962L698.759 589.633Z" fill="#455A64"/>
<path d="M709.441 577.716C709.497 576.903 709.341 576.09 708.989 575.355C708.637 574.62 708.101 573.989 707.433 573.522C706.698 573.172 705.88 573.032 705.069 573.117C704.259 573.203 703.488 573.511 702.843 574.008C700.953 575.277 699.401 576.987 698.32 578.99C697.239 580.994 696.663 583.23 696.641 585.506C696.585 586.332 696.762 587.157 697.153 587.886C697.543 588.616 698.13 589.221 698.848 589.633C699.607 589.932 700.43 590.03 701.238 589.918C702.046 589.806 702.812 589.487 703.46 588.993C705.269 587.711 706.752 586.023 707.791 584.065C708.829 582.107 709.395 579.932 709.441 577.716Z" fill="#263238"/>
<path d="M782.117 567.873C788.12 565.864 792.556 558.912 801.163 540.992C811.933 518.701 817.737 513.669 825.638 490.849C832.259 474.143 823.431 443.333 819.415 436.911C805.974 441.7 796.595 446.136 787.524 464.984C779.38 481.933 763.071 516.141 755.633 531.193C755.633 531.193 712.355 540.528 700.724 541.301C696.212 541.7 691.678 540.852 687.614 538.851C685.185 537.604 682.488 536.968 679.758 536.997C678.686 536.959 677.617 537.116 676.602 537.461C674.703 538.38 673.019 539.688 671.658 541.301C668.759 543.693 665.715 545.904 662.543 547.922C659.034 550.548 654.907 552.336 651.354 555.006C648.308 557.213 644.954 559.133 643.034 562.532C642.677 563.08 642.436 563.696 642.327 564.341C642.269 564.902 642.334 565.469 642.517 566.003C642.7 566.537 642.997 567.024 643.387 567.431C644.178 568.249 645.166 568.85 646.256 569.175C647.8 569.441 649.29 569.955 650.67 570.698C652.104 571.757 652.215 573.854 653.517 575.111C655.547 577.032 658.88 576.745 661.197 578.334C662.985 579.57 663.978 581.821 665.898 582.748C666.944 583.211 668.066 583.48 669.208 583.542C671.239 583.741 673.247 584.359 675.278 584.359C677.705 584.359 678.764 583.211 680.773 582.152C687.703 578.29 691.455 573.655 703.703 572.838C711.891 572.309 776.114 569.881 782.117 567.873Z" fill="#FFA8A7"/>
<path d="M820.717 434.483C806.084 437.97 797.433 443.311 787.811 460.967C778.983 477.321 754.706 529.582 754.706 529.582L730.43 536.401C728.494 539.232 727.162 542.431 726.517 545.799C725.871 549.167 725.926 552.631 726.678 555.977C728.995 567.321 734.027 572.419 734.027 572.419C734.027 572.419 746.408 572.066 767.507 571.337C788.605 570.609 790.128 565.732 794.763 556.551C799.397 547.37 827.867 491.975 827.867 491.975C827.867 491.975 839.388 451.014 820.717 434.483Z" fill="#455A64"/>
<path d="M849.982 428.061C840.139 429.871 830.428 432.475 820.762 434.903C813.476 436.341 806.656 439.547 800.899 444.238C791.541 452.647 786.576 464.542 781.036 475.577C772.208 493.542 763.932 511.727 755.435 529.824V530.045H755.192L730.916 536.798C719.131 538.586 706.639 542.537 694.677 541.433C690.55 541.058 687.085 538.387 683.157 537.615C681.207 537.207 679.193 537.207 677.242 537.615C675.399 538.35 673.768 539.534 672.497 541.058C666.384 546.531 659.079 550.261 652.26 554.609C649.059 557.014 645.263 559.023 643.211 562.554C645.219 558.934 648.993 556.904 652.039 554.454C658.77 550.04 666.053 546.09 671.902 540.661C673.23 539.051 674.947 537.805 676.889 537.041C678.927 536.611 681.031 536.611 683.069 537.041C687.108 537.792 690.44 540.418 694.567 540.793C706.529 541.786 718.844 537.836 730.496 535.96L754.641 529.096L754.31 529.383C762.623 511.183 771.208 493.115 780.065 475.18C785.737 464.145 790.813 452.161 800.303 443.731C806.2 438.828 813.316 435.617 820.894 434.439C829.347 432.078 840.448 429.694 849.893 428.039L849.982 428.061Z" fill="white"/>
<path opacity="0.3" d="M811.381 750.278C801.318 787.91 793.943 826.209 789.311 864.886C787.81 877.4 785.912 891.26 776.224 899.293C768.786 905.45 758.568 906.598 748.901 907.304C730.848 908.584 711.273 908.695 696.133 899.249C698.075 904.612 703.35 910.99 711.846 915.978C721.69 921.738 743.318 925.644 749.696 927.432C756.074 929.219 765.851 935.906 771.766 938.952C782.58 944.469 791.408 943.83 796.329 941.38C797.183 940.831 797.915 940.113 798.48 939.27C799.046 938.427 799.433 937.478 799.618 936.48C800.92 932.066 800.809 931.117 800.324 931.007C801.72 926.775 802.681 922.412 803.193 917.986C804.495 904.744 807.607 900.882 805.267 899.469C806.525 896.291 808.423 890.951 810.321 885.455C810.531 885.409 810.737 885.351 810.939 885.279C810.939 885.279 820.716 860.163 832.832 827.302C833.649 825.095 834.421 822.888 835.172 820.813C826.962 806.755 822.769 798.457 820.076 787.819C817.384 777.181 814.47 767.029 811.381 750.278ZM968.848 545.03C967.986 534.174 965.8 523.465 962.337 513.14C959.601 504.599 947.175 463.042 937.862 445.96C928.549 428.878 918.794 425.28 901.337 423.89C898.706 423.607 896.059 423.496 893.414 423.559C893.414 423.559 893.414 424.398 893.414 424.817L891.207 408.772C900.697 398.554 907.119 391.999 913.541 383.149C928.99 361.896 928.99 340.908 919.081 334.905C919.655 327.357 915.572 316.035 900.101 309.503C895.155 307.357 889.968 305.815 884.652 304.912C879.45 305.521 874.32 306.637 869.336 308.245C862.472 310.452 855.652 313.829 851.283 319.567C847.487 324.599 845.92 330.91 844.441 337.024C839.696 356.644 834.951 376.639 836.518 396.744C836.592 400.176 837.436 403.548 838.99 406.609C839.972 408.152 841.257 409.479 842.767 410.511C844.277 411.542 845.98 412.257 847.774 412.612C847.774 412.612 857.286 413.23 862.053 413.319C862.715 417.379 863.664 423.471 864.26 427.531C864.624 428.878 864.562 430.304 864.083 431.614C863.576 432.357 862.923 432.988 862.165 433.47C861.406 433.952 860.557 434.274 859.669 434.417C842.411 439.162 822.283 439.582 810.145 452.735C805.871 457.9 802.445 463.71 799.993 469.949L781.057 511.639C776.952 520.71 772.56 530.133 764.725 536.269C750.579 547.304 730.385 544.346 712.95 548.65C700.304 551.784 689.049 558.824 676.535 562.311C673.666 563.128 670.797 563.9 667.884 564.518C664.97 565.136 661.748 564.849 658.703 565.312C657.542 565.43 656.447 565.909 655.573 566.681C654.698 567.453 654.087 568.479 653.825 569.616C653.746 570.831 653.95 572.047 654.421 573.169C655.016 574.653 656.018 575.938 657.312 576.877C658.666 577.139 659.965 577.632 661.152 578.334C662.962 579.569 663.933 581.821 665.853 582.747C666.897 583.214 668.021 583.476 669.164 583.52C671.169 583.911 673.196 584.184 675.233 584.337C677.661 584.337 678.72 583.189 680.728 582.13L682.295 581.203C688.298 577.561 692.381 573.544 703.681 572.794L706.02 572.662C711.14 572.397 721.712 571.933 733.431 571.382C733.916 571.978 734.203 572.264 734.203 572.264C734.203 572.264 746.584 571.933 767.683 571.205C788.781 570.477 790.304 565.577 794.939 556.418L796.351 553.638V553.858C803.127 540.617 815.177 516.936 819.149 509.189C819.149 509.189 817.693 573.191 817.847 600.977C818.134 652.775 826.256 704.153 834.333 755.31C836.342 767.89 841.682 779.852 846.162 791.836C851.106 805.077 856.204 818.319 861.611 831.34C872.116 857.158 884.831 882.02 899.615 905.649C903.164 910.609 906.127 915.963 908.443 921.605C911.224 929.572 911.069 938.224 910.805 946.632C910.975 953.564 909.968 960.474 907.825 967.069C903.411 978.854 888.073 979.98 878.539 973.028C878.019 974.655 877.935 976.39 878.296 978.06C877.978 979.18 877.918 980.358 878.12 981.504C878.323 982.651 878.783 983.737 879.466 984.68C883.504 989.624 899.483 995.031 911.18 991.743L911.754 991.566C921.266 989.359 937.421 982.341 940.444 976.846C942.386 973.337 942.232 969.783 941.327 962.302C940.422 954.82 943.534 947.758 945.101 943.653C948.786 934.428 950.442 926.747 947.705 924.077C946.939 922.772 945.71 921.803 944.262 921.363C943.379 918.052 941.327 917.125 938.701 915.271C936.03 913.482 933.578 911.386 931.396 909.026C930.97 908.249 930.401 907.56 929.718 906.995C928.306 903.596 926.938 899.094 925.15 893.202H925.724C925.724 893.202 911.356 840.764 907.229 827.522C900.432 805.828 897.806 796.47 887.477 781.882C887.477 781.882 889.353 727.48 891.67 683.054L912.769 650.457C916.868 645.68 920.23 640.316 922.744 634.545C922.676 634.666 922.617 634.791 922.568 634.92C922.983 635.044 923.415 635.096 923.848 635.075C928.527 635.075 931.859 630.661 935.324 628.255C935.618 627.989 935.974 627.8 936.36 627.708C936.745 627.615 937.148 627.621 937.531 627.726L937.774 627.571C941.504 625.783 941.724 634.192 941.658 635.98C941.352 640.228 940.322 644.393 938.612 648.294C936.008 654.783 932.72 661.316 933.029 668.29C933.028 668.775 933.095 669.257 933.227 669.724C934.772 668.952 935.434 666.436 936.163 665.112C937.273 663.576 938.733 662.328 940.422 661.47C942.17 660.012 943.821 658.441 945.366 656.769C946.999 655.357 949.515 655.577 951.413 654.143C953.311 652.708 953.024 650.877 954.216 649.42C955.407 647.963 957.239 647.544 958.453 646.043C960.352 643.732 961.608 640.961 962.094 638.01C962.933 631.764 964.544 625.717 964.522 619.427C964.5 613.137 964.522 607.664 964.853 601.772C965.449 592.436 967.347 577.363 968.097 564.827C968.459 564.548 968.766 564.203 969.002 563.812C969.401 557.556 969.35 551.279 968.848 545.03ZM945.41 593.738C944.13 598.483 940.466 602.103 937.663 606.119C932.058 614.153 929.74 624.15 923.892 632.029C924.245 631.19 924.62 630.33 924.973 629.425C927.762 621.472 928.786 613.007 927.975 604.619C928.584 604.073 929.152 603.483 929.674 602.853C929.674 602.853 929.52 589.964 928.416 577.87C926.938 561.516 923.737 547.944 924.797 539.888C926.055 530.31 927.401 520.246 928.593 510.822C931.985 517.515 934.934 524.423 937.421 531.502C943.379 548.826 944.858 567.277 945.807 585.44C946.109 588.217 945.975 591.025 945.41 593.76V593.738Z" fill="black"/>
<path d="M210.268 387.762L187.095 401.136V456.884L155.094 475.357L192.613 334.111L167.718 348.61L127.463 499.126V520.754L187.051 486.325V518.547L210.224 505.173V472.863L225.894 463.814V434.461L210.224 443.51L210.268 387.762ZM294.597 275.207C261.338 294.407 234.39 345.83 234.39 390.234C234.39 434.638 261.338 454.942 294.597 435.764C327.856 416.585 354.803 365.141 354.803 320.714C354.803 276.288 327.833 256.116 294.597 275.317V275.207ZM294.597 404.844C274.138 416.651 257.564 404.116 257.564 376.86C257.564 349.604 274.138 317.911 294.597 306.104C315.055 294.297 331.607 306.832 331.607 334.111C331.607 361.389 315.033 393.147 294.597 404.954V404.844ZM445.465 307.605V251.967L422.27 265.342V321.09L390.291 339.562L427.809 198.316L402.892 212.705L362.637 363.265V384.805L422.225 350.376V382.642L445.421 369.268V337.068L461.09 328.019V298.667L445.465 307.605Z" fill="#BA68C8"/>
<path d="M207.067 297.431C207.125 297.388 207.194 297.365 207.266 297.365C207.338 297.365 207.407 297.388 207.465 297.431C207.597 297.431 207.641 297.651 207.641 297.872V299.925C207.643 300.15 207.582 300.372 207.465 300.565C207.381 300.755 207.242 300.916 207.067 301.028L197.555 306.523C197.498 306.566 197.428 306.59 197.357 306.59C197.285 306.59 197.215 306.566 197.158 306.523C197.098 306.468 197.05 306.399 197.02 306.323C196.989 306.246 196.976 306.164 196.982 306.082V287.433C196.991 287.209 197.052 286.99 197.158 286.793C197.242 286.603 197.38 286.442 197.555 286.33L206.891 280.945C206.95 280.896 207.024 280.87 207.101 280.87C207.177 280.87 207.251 280.896 207.31 280.945C207.37 281.005 207.415 281.078 207.442 281.158C207.468 281.239 207.476 281.324 207.465 281.408V283.439C207.466 283.668 207.413 283.895 207.31 284.101C207.212 284.289 207.068 284.448 206.891 284.564L199.895 288.603V293.193L206.516 289.419C206.576 289.375 206.65 289.351 206.725 289.351C206.801 289.351 206.874 289.375 206.935 289.419C206.996 289.475 207.043 289.544 207.073 289.62C207.104 289.697 207.117 289.779 207.112 289.861V291.913C207.105 292.145 207.045 292.372 206.935 292.575C206.85 292.772 206.703 292.935 206.516 293.039L199.895 296.791V301.58L207.067 297.431Z" fill="#37474F"/>
<path d="M216.579 275.383C218.389 274.346 219.757 274.125 220.706 274.699C221.655 275.273 222.097 276.531 222.097 278.517C222.103 279.889 221.856 281.251 221.368 282.534C220.859 283.812 220.11 284.98 219.161 285.977L222.141 291.384C222.16 291.471 222.16 291.561 222.141 291.648C222.139 291.833 222.094 292.014 222.008 292.178C221.927 292.326 221.814 292.454 221.677 292.553L219.823 293.635C219.536 293.789 219.338 293.833 219.183 293.635C219.069 293.542 218.972 293.43 218.896 293.304L216.071 288.206L213.18 289.861V296.592C213.185 296.818 213.123 297.04 213.004 297.232C212.914 297.424 212.777 297.591 212.607 297.718L210.841 298.711C210.785 298.757 210.715 298.783 210.642 298.783C210.57 298.783 210.499 298.757 210.444 298.711C210.377 298.655 210.326 298.583 210.295 298.502C210.264 298.421 210.254 298.333 210.267 298.247V279.62C210.263 279.395 210.324 279.172 210.444 278.98C210.527 278.784 210.665 278.616 210.841 278.495L216.579 275.383ZM213.335 286.418L216.469 284.608C217.244 284.18 217.921 283.593 218.455 282.887C218.973 282.12 219.228 281.207 219.183 280.283C219.183 279.201 218.941 278.627 218.455 278.539C217.745 278.508 217.045 278.718 216.469 279.135L213.335 280.945V286.418Z" fill="#37474F"/>
<path d="M230.991 266.952C232.801 265.915 234.169 265.672 235.096 266.246C236.023 266.82 236.508 268.1 236.508 270.086C236.524 272.841 235.508 275.502 233.661 277.546L236.641 282.931C236.661 283.026 236.661 283.123 236.641 283.218C236.639 283.402 236.594 283.584 236.508 283.748C236.426 283.902 236.304 284.032 236.155 284.123L234.323 285.182C234.036 285.359 233.816 285.381 233.683 285.292C233.563 285.197 233.465 285.076 233.396 284.939L230.549 279.863L227.68 281.518V288.25C227.671 288.474 227.61 288.693 227.504 288.89C227.42 289.08 227.282 289.241 227.107 289.353L225.341 290.368C225.281 290.406 225.213 290.425 225.142 290.425C225.072 290.425 225.003 290.406 224.944 290.368C224.877 290.313 224.826 290.241 224.795 290.16C224.764 290.079 224.754 289.991 224.767 289.905V271.366C224.762 271.133 224.824 270.904 224.944 270.704C225.028 270.514 225.166 270.353 225.341 270.241L230.991 266.952ZM227.747 277.987L230.88 276.178C231.649 275.748 232.318 275.162 232.845 274.456C233.379 273.688 233.643 272.764 233.595 271.83C233.595 270.771 233.352 270.175 232.845 270.108C232.145 270.081 231.455 270.283 230.88 270.682L227.747 272.492V277.987Z" fill="#37474F"/>
<path d="M238.803 270.042C238.849 268.926 239.004 267.817 239.266 266.732C239.527 265.633 239.928 264.573 240.458 263.576C240.977 262.559 241.63 261.616 242.4 260.773C243.2 259.899 244.13 259.154 245.159 258.566C245.994 258.041 246.937 257.709 247.918 257.595C248.612 257.522 249.307 257.72 249.86 258.147C250.432 258.605 250.848 259.23 251.051 259.934C251.343 260.834 251.506 261.77 251.537 262.715C251.537 263.068 251.537 263.465 251.537 263.907C251.537 264.348 251.537 264.812 251.537 265.275C251.537 265.739 251.537 266.202 251.537 266.643C251.537 267.085 251.537 267.504 251.537 267.879C251.491 268.995 251.336 270.104 251.073 271.19C250.802 272.285 250.402 273.344 249.882 274.346C249.363 275.368 248.702 276.312 247.918 277.149C247.126 278.031 246.194 278.777 245.159 279.356C244.327 279.893 243.384 280.233 242.4 280.349C241.709 280.419 241.017 280.23 240.458 279.819C239.886 279.36 239.469 278.736 239.266 278.031C238.985 277.13 238.829 276.194 238.803 275.251C238.803 274.897 238.803 274.5 238.803 274.059C238.803 273.617 238.803 273.154 238.803 272.691C238.803 272.227 238.803 271.764 238.803 271.322C238.803 270.881 238.803 270.417 238.803 270.042ZM248.602 264.525C248.65 264.04 248.586 263.551 248.413 263.095C248.241 262.639 247.966 262.23 247.609 261.898C246.991 261.486 246.174 261.575 245.159 262.163C244.129 262.767 243.289 263.646 242.731 264.701C242.098 265.868 241.757 267.17 241.738 268.497C241.738 269.248 241.738 270.064 241.738 270.969C241.738 271.874 241.738 272.668 241.738 273.375C241.684 273.86 241.746 274.351 241.919 274.807C242.092 275.264 242.37 275.673 242.731 276.001C243.125 276.231 243.581 276.333 244.035 276.294C244.49 276.254 244.921 276.075 245.269 275.78C246.305 275.178 247.153 274.299 247.719 273.242C248.341 272.08 248.682 270.787 248.712 269.468C248.712 268.718 248.712 267.901 248.712 266.997C248.712 266.092 248.646 265.231 248.602 264.525Z" fill="#37474F"/>
<path d="M260.543 249.959C262.352 248.922 263.721 248.679 264.67 249.253C265.619 249.826 266.082 251.106 266.082 253.093C266.086 254.465 265.84 255.826 265.354 257.109C264.848 258.383 264.099 259.545 263.147 260.53L266.126 265.937C266.149 266.032 266.149 266.13 266.126 266.224C266.125 266.409 266.079 266.59 265.994 266.754C265.927 266.911 265.811 267.043 265.663 267.129L263.809 268.188C263.522 268.365 263.324 268.387 263.169 268.188C263.045 268.106 262.946 267.992 262.882 267.857L260.057 262.781L257.166 264.437V271.057C257.165 271.28 257.112 271.499 257.012 271.697C256.914 271.885 256.769 272.045 256.592 272.161L254.827 273.176C254.769 273.219 254.7 273.242 254.628 273.242C254.556 273.242 254.487 273.219 254.429 273.176C254.366 273.123 254.317 273.054 254.286 272.977C254.256 272.9 254.244 272.817 254.253 272.735V254.086C254.262 253.862 254.323 253.643 254.429 253.446C254.514 253.256 254.652 253.095 254.827 252.982L260.543 249.959ZM257.299 260.994L260.432 259.162C261.206 258.741 261.883 258.162 262.419 257.463C262.932 256.686 263.187 255.767 263.147 254.836C263.147 253.755 262.904 253.181 262.419 253.093C261.711 253.084 261.018 253.292 260.432 253.689L257.299 255.498V260.994Z" fill="#37474F"/>
<path d="M286.784 255.013C286.519 255.167 286.342 255.189 286.21 255.013C286.106 254.942 286.01 254.861 285.923 254.77L279.876 246.273V258.169C279.866 258.393 279.806 258.612 279.699 258.809C279.608 259.001 279.462 259.162 279.28 259.272L277.536 260.287C277.476 260.332 277.402 260.356 277.327 260.356C277.251 260.356 277.178 260.332 277.117 260.287C277.057 260.232 277.009 260.163 276.979 260.087C276.948 260.01 276.935 259.928 276.941 259.846V241.197C276.95 240.973 277.011 240.754 277.117 240.557C277.208 240.365 277.354 240.204 277.536 240.094L279.059 239.211C279.302 239.079 279.479 239.056 279.611 239.211L279.898 239.454L285.945 247.951V236.055C285.954 235.824 286.015 235.598 286.122 235.393C286.213 235.2 286.359 235.039 286.541 234.929L288.284 233.914C288.345 233.869 288.419 233.845 288.494 233.845C288.57 233.845 288.643 233.869 288.704 233.914C288.764 233.97 288.811 234.039 288.842 234.115C288.873 234.191 288.886 234.274 288.88 234.356V253.004C288.874 253.229 288.813 253.449 288.704 253.644C288.606 253.838 288.462 254.005 288.284 254.13L286.784 255.013Z" fill="#37474F"/>
<path d="M269.149 263.443C269.184 263.153 269.266 262.869 269.392 262.605C269.516 262.327 269.725 262.096 269.988 261.943L271.665 260.972C271.71 260.939 271.764 260.922 271.819 260.922C271.875 260.922 271.929 260.939 271.974 260.972C272.02 261.013 272.056 261.064 272.079 261.121C272.102 261.179 272.112 261.241 272.106 261.303C272.106 261.303 272.106 261.435 272.106 261.479L270.826 266.533C270.826 266.732 270.672 266.952 270.561 267.217C270.438 267.477 270.237 267.693 269.988 267.835L269.105 268.343C269.065 268.377 269.014 268.396 268.961 268.396C268.909 268.396 268.858 268.377 268.818 268.343C268.818 268.343 268.686 268.188 268.686 268.034L269.149 263.443Z" fill="#37474F"/>
<path d="M291.727 239.498C291.773 238.382 291.928 237.273 292.19 236.187C292.452 235.082 292.852 234.014 293.382 233.009C293.899 231.998 294.552 231.062 295.324 230.229C296.119 229.35 297.051 228.604 298.083 228.022C298.913 227.486 299.858 227.153 300.842 227.051C301.533 226.974 302.227 227.163 302.784 227.58C303.351 228.052 303.766 228.682 303.975 229.39C304.27 230.289 304.434 231.225 304.461 232.171C304.461 232.524 304.461 232.921 304.461 233.363V236.055C304.461 236.496 304.461 236.916 304.461 237.291C304.415 238.407 304.26 239.516 303.998 240.601C303.726 241.697 303.326 242.756 302.806 243.757C302.279 244.775 301.618 245.718 300.842 246.56C300.044 247.436 299.113 248.181 298.083 248.767C297.251 249.305 296.308 249.645 295.324 249.76C294.633 249.833 293.941 249.644 293.382 249.231C292.805 248.767 292.388 248.134 292.19 247.421C291.909 246.527 291.753 245.599 291.727 244.662C291.727 244.287 291.727 243.912 291.727 243.47C291.727 243.029 291.727 242.566 291.727 242.102C291.727 241.639 291.727 241.175 291.727 240.712C291.727 240.248 291.616 239.873 291.727 239.498ZM301.526 233.98C301.571 233.493 301.505 233.001 301.333 232.542C301.161 232.084 300.887 231.67 300.533 231.332C300.141 231.141 299.703 231.065 299.27 231.112C298.836 231.159 298.425 231.327 298.083 231.597C297.057 232.215 296.218 233.1 295.655 234.157C295.025 235.326 294.677 236.626 294.64 237.953C294.64 238.703 294.64 239.52 294.64 240.403C294.64 241.286 294.64 242.102 294.64 242.83C294.594 243.314 294.662 243.801 294.839 244.253C295.015 244.705 295.295 245.11 295.655 245.435C296.041 245.634 296.477 245.716 296.909 245.669C297.341 245.621 297.749 245.448 298.083 245.17C299.076 244.561 299.89 243.7 300.444 242.676C301.067 241.513 301.407 240.22 301.437 238.902C301.437 238.152 301.437 237.335 301.437 236.43C301.437 235.525 301.548 234.687 301.526 233.98Z" fill="#37474F"/>
<path d="M317.084 217.318C317.145 217.273 317.218 217.249 317.294 217.249C317.369 217.249 317.443 217.273 317.503 217.318C317.567 217.371 317.616 217.44 317.647 217.517C317.677 217.593 317.689 217.677 317.68 217.759V219.812C317.67 220.036 317.61 220.254 317.503 220.452C317.412 220.644 317.266 220.805 317.084 220.915L313.2 223.122V238.946C313.19 239.17 313.13 239.389 313.023 239.586C312.932 239.778 312.786 239.94 312.604 240.05L310.86 241.065C310.8 241.11 310.726 241.134 310.651 241.134C310.575 241.134 310.502 241.11 310.441 241.065C310.376 241.012 310.326 240.944 310.295 240.867C310.264 240.79 310.254 240.706 310.265 240.623V224.821L306.38 227.028C306.32 227.073 306.246 227.097 306.171 227.097C306.095 227.097 306.022 227.073 305.961 227.028C305.9 226.973 305.853 226.904 305.823 226.828C305.792 226.751 305.779 226.669 305.784 226.587V224.535C305.791 224.303 305.851 224.076 305.961 223.872C306.052 223.68 306.198 223.519 306.38 223.409L317.084 217.318Z" fill="#37474F"/>
<path d="M334.057 207.519C334.115 207.476 334.184 207.453 334.256 207.453C334.328 207.453 334.397 207.476 334.455 207.519C334.519 207.571 334.57 207.639 334.6 207.716C334.631 207.794 334.642 207.878 334.631 207.96V210.013C334.635 210.239 334.574 210.461 334.455 210.653C334.364 210.845 334.228 211.012 334.057 211.138L327.149 215.111V220.717L333.616 216.987C333.675 216.938 333.749 216.912 333.826 216.912C333.902 216.912 333.976 216.938 334.035 216.987C334.097 217.046 334.146 217.118 334.176 217.198C334.207 217.279 334.219 217.365 334.212 217.45V219.481C334.206 219.712 334.145 219.939 334.035 220.143C333.944 220.335 333.798 220.496 333.616 220.606L327.149 224.336V230.957C327.14 231.181 327.08 231.4 326.973 231.597C326.889 231.787 326.751 231.948 326.576 232.06L324.81 233.076C324.753 233.119 324.683 233.142 324.611 233.142C324.54 233.142 324.47 233.119 324.413 233.076C324.346 233.025 324.295 232.957 324.264 232.879C324.233 232.801 324.223 232.717 324.236 232.634V213.985C324.232 213.752 324.293 213.523 324.413 213.323C324.497 213.133 324.635 212.972 324.81 212.86L334.057 207.519Z" fill="#37474F"/>
<path d="M336.461 213.676C336.507 212.56 336.662 211.452 336.924 210.366C337.188 209.264 337.581 208.198 338.094 207.188C338.631 206.182 339.283 205.241 340.036 204.385C340.843 203.51 341.781 202.765 342.817 202.178C343.644 201.648 344.579 201.309 345.554 201.185C346.254 201.124 346.952 201.32 347.518 201.737C348.072 202.221 348.484 202.846 348.71 203.546C348.996 204.446 349.153 205.383 349.173 206.327C349.173 206.68 349.173 207.078 349.173 207.519V210.256C349.173 210.697 349.173 211.116 349.173 211.492C349.127 212.607 348.972 213.716 348.71 214.802C348.446 215.896 348.053 216.956 347.54 217.958C347.013 218.976 346.353 219.918 345.576 220.761C344.773 221.632 343.843 222.376 342.817 222.968C341.977 223.504 341.026 223.843 340.036 223.961C339.346 224.027 338.655 223.838 338.094 223.431C337.531 222.96 337.123 222.329 336.924 221.621C336.643 220.728 336.487 219.799 336.461 218.863C336.461 218.488 336.461 218.09 336.461 217.649V214.912C336.417 214.449 336.439 213.985 336.461 213.676ZM346.26 208.159C346.306 207.669 346.238 207.175 346.062 206.716C345.886 206.257 345.606 205.844 345.245 205.511C344.859 205.311 344.423 205.23 343.991 205.277C343.559 205.324 343.151 205.497 342.817 205.775C341.782 206.382 340.94 207.269 340.389 208.336C339.757 209.503 339.409 210.804 339.374 212.132C339.374 212.882 339.374 213.698 339.374 214.581C339.374 215.464 339.374 216.281 339.374 217.009C339.329 217.492 339.397 217.979 339.573 218.431C339.749 218.884 340.029 219.288 340.389 219.613C340.775 219.813 341.211 219.894 341.643 219.847C342.075 219.8 342.483 219.626 342.817 219.348C343.84 218.736 344.679 217.859 345.245 216.81C345.875 215.65 346.223 214.357 346.26 213.036C346.26 212.286 346.26 211.469 346.26 210.565C346.26 209.66 346.282 208.865 346.26 208.159Z" fill="#37474F"/>
<path d="M363.739 190.393C363.799 190.344 363.873 190.318 363.949 190.318C364.025 190.318 364.1 190.344 364.159 190.393C364.218 190.453 364.263 190.526 364.29 190.606C364.317 190.687 364.325 190.772 364.313 190.856V202.686C364.324 203.844 364.198 205 363.938 206.128C363.678 207.224 363.285 208.284 362.768 209.284C362.241 210.276 361.588 211.196 360.826 212.021C360.031 212.882 359.117 213.625 358.112 214.228C357.288 214.749 356.362 215.087 355.397 215.221C354.714 215.319 354.02 215.153 353.455 214.758C352.891 214.281 352.49 213.641 352.307 212.926C352.028 211.951 351.902 210.938 351.932 209.924V198.095C351.931 197.872 351.984 197.653 352.087 197.455C352.184 197.261 352.328 197.095 352.506 196.969L354.272 195.954C354.329 195.911 354.399 195.888 354.47 195.888C354.542 195.888 354.611 195.911 354.669 195.954C354.731 196.013 354.779 196.086 354.81 196.166C354.84 196.246 354.852 196.332 354.845 196.418V208.093C354.827 208.727 354.909 209.36 355.088 209.969C355.195 210.363 355.427 210.712 355.75 210.962C356.063 211.146 356.432 211.209 356.787 211.138C357.256 211.05 357.704 210.878 358.112 210.631C358.594 210.349 359.039 210.008 359.436 209.615C359.856 209.207 360.213 208.738 360.495 208.225C360.793 207.666 361.022 207.073 361.179 206.459C361.347 205.736 361.429 204.995 361.422 204.252V192.556C361.432 192.332 361.492 192.113 361.599 191.916C361.684 191.719 361.831 191.556 362.018 191.452L363.739 190.393Z" fill="#37474F"/>
<path d="M377.422 202.686C377.335 202.736 377.236 202.762 377.135 202.762C377.035 202.762 376.936 202.736 376.849 202.686L376.562 202.443L370.515 194.123V205.996C370.508 206.227 370.448 206.454 370.338 206.658C370.253 206.855 370.106 207.018 369.919 207.122L368.175 208.137C368.113 208.179 368.04 208.201 367.966 208.201C367.891 208.201 367.818 208.179 367.756 208.137C367.695 208.081 367.648 208.012 367.618 207.936C367.587 207.86 367.574 207.777 367.579 207.695V189.046C367.589 188.823 367.649 188.604 367.756 188.406C367.854 188.219 367.998 188.059 368.175 187.943L369.698 187.06C369.941 186.906 370.117 186.906 370.25 187.06C370.354 187.131 370.45 187.212 370.537 187.303L376.584 195.8V183.75C376.59 183.518 376.65 183.292 376.76 183.088C376.851 182.895 376.997 182.734 377.18 182.624L378.923 181.609C378.984 181.564 379.057 181.54 379.133 181.54C379.208 181.54 379.282 181.564 379.342 181.609C379.403 181.665 379.45 181.733 379.481 181.81C379.511 181.886 379.524 181.968 379.519 182.05V200.743C379.509 200.967 379.449 201.186 379.342 201.383C379.251 201.576 379.105 201.737 378.923 201.847L377.422 202.686Z" fill="#37474F"/>
<path d="M388.723 175.893C389.576 175.376 390.52 175.024 391.504 174.856C392.193 174.763 392.892 174.928 393.468 175.319C394.052 175.78 394.477 176.413 394.682 177.129C394.998 178.099 395.169 179.11 395.189 180.13C395.189 181.521 395.189 182.955 395.189 184.412C395.146 185.618 394.976 186.816 394.682 187.987C394.428 189.102 394.027 190.178 393.49 191.187C392.968 192.175 392.314 193.088 391.548 193.902C390.757 194.768 389.842 195.511 388.833 196.109L383.382 199.243C383.326 199.289 383.256 199.315 383.183 199.315C383.111 199.315 383.04 199.289 382.985 199.243C382.918 199.187 382.867 199.115 382.836 199.034C382.805 198.953 382.795 198.865 382.808 198.779V180.108C382.804 179.882 382.865 179.66 382.985 179.468C383.068 179.272 383.206 179.104 383.382 178.983L388.723 175.893ZM392.276 181.808C392.266 181.282 392.177 180.762 392.011 180.263C391.893 179.874 391.662 179.529 391.349 179.27C391.19 179.149 391.008 179.062 390.815 179.013C390.622 178.964 390.421 178.953 390.224 178.983C389.652 179.071 389.104 179.273 388.612 179.579L385.721 181.256V194.233L388.723 192.489C389.296 192.166 389.817 191.756 390.268 191.276C390.704 190.818 391.068 190.297 391.349 189.731C391.645 189.173 391.868 188.58 392.011 187.965C392.166 187.351 392.254 186.722 392.276 186.089C392.431 184.633 392.431 183.22 392.364 181.808H392.276Z" fill="#37474F"/>
</svg>
