<svg width="108" height="108" viewBox="0 0 108 108" fill="none" xmlns="http://www.w3.org/2000/svg">
<g filter="url(#filter0_d_755_15239)">
<path d="M54 99.9996C81.6142 99.9996 104 77.6139 104 49.9996C104 22.3854 81.6142 -0.000366211 54 -0.000366211C26.3858 -0.000366211 4 22.3854 4 49.9996C4 77.6139 26.3858 99.9996 54 99.9996Z" fill="white"/>
<path d="M87.06 87.511L42.4122 29.9996H34V69.983H40.7298V38.546L81.7773 91.5803C83.6294 90.3405 85.394 88.9804 87.06 87.511Z" fill="url(#paint0_linear_755_15239)"/>
<path d="M74.5558 29.9996H67.8892V69.9996H74.5558V29.9996Z" fill="url(#paint1_linear_755_15239)"/>
</g>
<defs>
<filter id="filter0_d_755_15239" x="0" y="-0.000366211" width="108" height="108" filterUnits="userSpaceOnUse" color-interpolation-filters="sRGB">
<feFlood flood-opacity="0" result="BackgroundImageFix"/>
<feColorMatrix in="SourceAlpha" type="matrix" values="0 0 0 0 0 0 0 0 0 0 0 0 0 0 0 0 0 0 127 0" result="hardAlpha"/>
<feOffset dy="4"/>
<feGaussianBlur stdDeviation="2"/>
<feComposite in2="hardAlpha" operator="out"/>
<feColorMatrix type="matrix" values="0 0 0 0 0 0 0 0 0 0 0 0 0 0 0 0 0 0 0.25 0"/>
<feBlend mode="normal" in2="BackgroundImageFix" result="effect1_dropShadow_755_15239"/>
<feBlend mode="normal" in="SourceGraphic" in2="effect1_dropShadow_755_15239" result="shape"/>
</filter>
<linearGradient id="paint0_linear_755_15239" x1="64.5555" y1="64.7219" x2="84.2778" y2="89.1663" gradientUnits="userSpaceOnUse">
<stop/>
<stop offset="1" stop-color="white" stop-opacity="0"/>
</linearGradient>
<linearGradient id="paint1_linear_755_15239" x1="71.2225" y1="29.9996" x2="71.1109" y2="59.3748" gradientUnits="userSpaceOnUse">
<stop/>
<stop offset="1" stop-color="white" stop-opacity="0"/>
</linearGradient>
</defs>
</svg>
